# xmcd CD database file
#
# Track frame offsets:
#	150
#	18698
#	38737
#	61153
#	81972
#	102456
#	119854
#	138126
#	158496
#	175874
#	191372
#	209340
#	230964
#	251530
#	273893
#	293152
#
# Disc length: 4190 seconds
#
# Revision: 0
# Processed by: cddbd v1.5.1PL0 Copyright (c) Steve Scherf et al.
# Submitted via: CDex 1.51
#
DISCID=e4105c10
DTITLE=Various Artist - MY MEMORIES 5
DYEAR=2003
DGENRE=Pop
TTITLE0=KAN／愛は勝つ
TTITLE1=安全地帯／悲しみにさよなら
TTITLE2=来生たかお／Goodbye Day
TTITLE3=欧陽菲菲／ラヴ・イズ・オーヴァー
TTITLE4=薬師丸ひろ子／セーラ服と機関銃(夢の途中)
TTITLE5=テレサ・テン／つぐない
TTITLE6=H2O／想い出がいっぱい
TTITLE7=来生たかお／気分は逆光線
TTITLE8=大橋純子／たそがれマイ・ラブ
TTITLE9=柏原芳恵／春なのに
TTITLE10=杉山清貴＆オメガドライブ／ふたりの夏物語 NEVER ENDING SUMMER
TTITLE11=高橋洋子／P.S I miss you
TTITLE12=中西圭三／眠れぬ思い
TTITLE13=KATSUMI／YES,抱きしめて
TTITLE14=椎名恵／LOVE IS ALL〜愛を聴かせて〜
TTITLE15=織田裕二 with マキシ・プリースト／Love Somebody
EXTD=YEAR: 2003
EXTT0=
EXTT1=
EXTT2=
EXTT3=
EXTT4=
EXTT5=
EXTT6=
EXTT7=
EXTT8=
EXTT9=
EXTT10=
EXTT11=
EXTT12=
EXTT13=
EXTT14=
EXTT15=
PLAYORDER=
